<svg width="15" height="3" viewBox="0 0 15 3" fill="none" xmlns="http://www.w3.org/2000/svg">
<path d="M15 1.49998C15 2.32841 14.3284 2.99998 13.5 2.99998C12.6716 2.99998 12 2.32841 12 1.49998C12 0.671558 12.6716 -1.52588e-05 13.5 -1.52588e-05C14.3284 -1.52588e-05 15 0.671558 15 1.49998Z" fill="#D9D9D9"/>
<path d="M9 1.49998C9 2.32841 8.32843 2.99998 7.5 2.99998C6.67157 2.99998 6 2.32841 6 1.49998C6 0.671558 6.67157 -1.52588e-05 7.5 -1.52588e-05C8.32843 -1.52588e-05 9 0.671558 9 1.49998Z" fill="#D9D9D9"/>
<path d="M3 1.49998C3 2.32841 2.32843 2.99998 1.5 2.99998C0.671573 2.99998 0 2.32841 0 1.49998C0 0.671558 0.671573 -1.52588e-05 1.5 -1.52588e-05C2.32843 -1.52588e-05 3 0.671558 3 1.49998Z" fill="#D9D9D9"/>
</svg>
